<?xml version="1.0" encoding="utf-8"?>
<!-- Generator: Adobe Illustrator 26.1.0, SVG Export Plug-In . SVG Version: 6.00 Build 0)  -->
<svg version="1.1" id="Layer_2" xmlns="http://www.w3.org/2000/svg" xmlns:xlink="http://www.w3.org/1999/xlink" x="0px" y="0px"
	 viewBox="0 0 120 200" style="enable-background:new 0 0 120 200;" xml:space="preserve">
<style type="text/css">
	.st0{fill:none;stroke:#000000;stroke-width:2;stroke-miterlimit:10;}
</style>
<path class="st0" d="M67.5,126.5L67.5,126.5c-12.15,0-22-9.85-22-22v-45c0-12.15,9.85-22,22-22h0c12.15,0,22,9.85,22,22v45
	C89.5,116.65,79.65,126.5,67.5,126.5z"/>
<path class="st0" d="M67,109.5L67,109.5c-1.38,0-2.5-1.12-2.5-2.5V95c0-1.38,1.12-2.5,2.5-2.5l0,0c1.38,0,2.5,1.12,2.5,2.5v12
	C69.5,108.38,68.38,109.5,67,109.5z"/>
<line class="st0" x1="117.5" y1="8.5" x2="117.5" y2="197"/>
<line class="st0" x1="83.5" y1="162.5" x2="118" y2="197"/>
</svg>
